<?xml version="1.0" standalone="no"?>
<!DOCTYPE svg PUBLIC "-//W3C//DTD SVG 20010904//EN"
 "http://www.w3.org/TR/2001/REC-SVG-20010904/DTD/svg10.dtd">
<svg version="1.0" xmlns="http://www.w3.org/2000/svg"
 width="100.000000pt" height="100.000000pt" viewBox="0 0 100.000000 100.000000"
 preserveAspectRatio="xMidYMid meet">
<metadata>
Created by potrace 1.10, written by Peter Selinger 2001-2011
</metadata>
<g transform="translate(0.000000,100.000000) scale(0.100000,-0.100000)"
fill="#000000" stroke="none">
<path d="M0 500 l0 -500 500 0 500 0 0 500 0 500 -500 0 -500 0 0 -500z m581
225 c170 -58 223 -268 101 -399 -40 -42 -118 -76 -178 -76 -126 0 -244 118
-244 245 0 95 77 201 167 229 63 19 100 19 154 1z"/>
<path d="M426 695 c-143 -51 -182 -251 -70 -357 94 -88 255 -73 327 31 26 38
32 58 35 111 2 40 -2 77 -10 96 -47 108 -168 160 -282 119z"/>
</g>
</svg>
